<?xml version="1.0" standalone="no"?>
<!DOCTYPE svg PUBLIC "-//W3C//DTD SVG 20010904//EN"
 "http://www.w3.org/TR/2001/REC-SVG-20010904/DTD/svg10.dtd">
<svg version="1.0" xmlns="http://www.w3.org/2000/svg"
 width="2048.000000pt" height="2048.000000pt" viewBox="0 0 2048.000000 2048.000000"
 preserveAspectRatio="xMidYMid meet">

<g transform="translate(0.000000,2048.000000) scale(0.100000,-0.100000)"
fill="#000000" stroke="none">
<path d="M9076 14094 c-766 -119 -1354 -692 -1475 -1436 -18 -111 -20 -192
-26 -823 -3 -384 -3 -696 0 -693 4 3 27 66 51 140 112 334 307 627 554 833
198 165 439 292 678 359 221 63 127 59 1657 66 1278 6 1408 8 1490 24 119 23
249 68 365 126 341 171 584 499 655 885 22 114 17 355 -9 463 l-18 72 -1916
-1 c-1576 -1 -1933 -3 -2006 -15z"/>
<path d="M9040 11371 c-396 -61 -709 -218 -986 -495 -234 -234 -371 -488 -443
-818 -39 -180 -42 -324 -39 -1598 4 -1124 5 -1221 22 -1290 81 -341 331 -608
656 -700 108 -31 281 -38 402 -16 192 35 340 117 486 271 94 100 135 161 187
282 73 170 69 90 72 1443 1 668 2 1245 3 1283 l0 67 833 0 c858 0 1054 7 1192
39 587 140 986 625 988 1201 0 117 -19 262 -43 325 l-10 25 -1602 -1 c-1480
-1 -1612 -2 -1718 -18z"/>
</g>
</svg>
